<svg width="20" height="20" viewBox="0 0 20 20" fill="none" xmlns="http://www.w3.org/2000/svg">
<g id="vuesax/bulk/scanning">
<g id="scanning">
<path id="Vector" opacity="0.4" d="M1.66675 8.125C1.32508 8.125 1.04175 7.84167 1.04175 7.5V5.41667C1.04175 3 3.00841 1.04167 5.41675 1.04167H7.50008C7.84175 1.04167 8.12508 1.32501 8.12508 1.66667C8.12508 2.00834 7.84175 2.29167 7.50008 2.29167H5.41675C3.69175 2.29167 2.29175 3.69167 2.29175 5.41667V7.5C2.29175 7.84167 2.00841 8.125 1.66675 8.125Z" fill="#388E3C"/>
<path id="Vector_2" d="M18.3333 8.125C17.9917 8.125 17.7083 7.84167 17.7083 7.5V5.41667C17.7083 3.69167 16.3083 2.29167 14.5833 2.29167H12.5C12.1583 2.29167 11.875 2.00834 11.875 1.66667C11.875 1.32501 12.1583 1.04167 12.5 1.04167H14.5833C16.9917 1.04167 18.9583 3 18.9583 5.41667V7.5C18.9583 7.84167 18.675 8.125 18.3333 8.125Z" fill="#388E3C"/>
<path id="Vector_3" opacity="0.4" d="M14.5833 18.9583H13.3333C12.9916 18.9583 12.7083 18.675 12.7083 18.3333C12.7083 17.9917 12.9916 17.7083 13.3333 17.7083H14.5833C16.3083 17.7083 17.7083 16.3083 17.7083 14.5833V13.3333C17.7083 12.9917 17.9916 12.7083 18.3333 12.7083C18.6749 12.7083 18.9583 12.9917 18.9583 13.3333V14.5833C18.9583 17 16.9916 18.9583 14.5833 18.9583Z" fill="#388E3C"/>
<path id="Vector_4" d="M7.50008 18.9583H5.41675C3.00841 18.9583 1.04175 17 1.04175 14.5833V12.5C1.04175 12.1583 1.32508 11.875 1.66675 11.875C2.00841 11.875 2.29175 12.1583 2.29175 12.5V14.5833C2.29175 16.3083 3.69175 17.7083 5.41675 17.7083H7.50008C7.84175 17.7083 8.12508 17.9917 8.12508 18.3333C8.12508 18.675 7.84175 18.9583 7.50008 18.9583Z" fill="#388E3C"/>
<path id="Vector_5" d="M7.08335 9.48333C8.40883 9.48333 9.48335 8.40882 9.48335 7.08333C9.48335 5.75785 8.40883 4.68333 7.08335 4.68333C5.75787 4.68333 4.68335 5.75785 4.68335 7.08333C4.68335 8.40882 5.75787 9.48333 7.08335 9.48333Z" fill="#388E3C"/>
<path id="Vector_6" opacity="0.4" d="M6.25002 15.3167C7.11526 15.3167 7.81668 14.6152 7.81668 13.75C7.81668 12.8848 7.11526 12.1833 6.25002 12.1833C5.38477 12.1833 4.68335 12.8848 4.68335 13.75C4.68335 14.6152 5.38477 15.3167 6.25002 15.3167Z" fill="#388E3C"/>
<path id="Vector_7" opacity="0.4" d="M13.75 7.81667C14.6153 7.81667 15.3167 7.11525 15.3167 6.25C15.3167 5.38476 14.6153 4.68333 13.75 4.68333C12.8848 4.68333 12.1833 5.38476 12.1833 6.25C12.1833 7.11525 12.8848 7.81667 13.75 7.81667Z" fill="#388E3C"/>
<path id="Vector_8" d="M12.9166 15.3167C14.2421 15.3167 15.3166 14.2421 15.3166 12.9167C15.3166 11.5912 14.2421 10.5167 12.9166 10.5167C11.5911 10.5167 10.5166 11.5912 10.5166 12.9167C10.5166 14.2421 11.5911 15.3167 12.9166 15.3167Z" fill="#388E3C"/>
</g>
</g>
</svg>
