<svg width="49" height="48" viewBox="0 0 49 48" fill="none" xmlns="http://www.w3.org/2000/svg">
<g id="vuesax/bulk/empty-wallet-add">
<g id="empty-wallet-add">
<path id="Vector" opacity="0.4" d="M39.7008 25.2101H43.6332V22.4068C43.6332 18.3771 40.3432 15.0871 36.3135 15.0871H13.9652C9.93547 15.0871 6.64551 18.3771 6.64551 22.4068V30.9139C7.98874 29.8432 9.68239 29.2008 11.5123 29.2008C15.8146 29.2008 19.2992 32.6854 19.2992 36.9877C19.2992 38.4477 18.8904 39.8299 18.1701 40.9979C17.7613 41.6987 17.2357 42.3217 16.6322 42.8278H36.3135C40.3432 42.8278 43.6332 39.5379 43.6332 35.5082V33.1916H39.9344C37.832 33.1916 35.9047 31.6537 35.7295 29.5512C35.6127 28.3248 36.0799 27.1762 36.8975 26.378C37.6178 25.6383 38.6107 25.2101 39.7008 25.2101Z" fill="#388E3C"/>
<path id="Vector_2" d="M30.6875 7.68978V15.0873H13.9652C9.93547 15.0873 6.64551 18.3773 6.64551 22.407V15.2626C6.64551 12.946 8.06661 10.8823 10.2275 10.0647L25.6844 4.22456C28.0984 3.32907 30.6875 5.10065 30.6875 7.68978Z" fill="#388E3C"/>
<path id="Vector_3" d="M45.6981 27.196V31.2063C45.6981 32.277 44.8415 33.153 43.7514 33.1919H39.9358C37.8333 33.1919 35.9061 31.654 35.7309 29.5516C35.6141 28.3251 36.0813 27.1765 36.8989 26.3784C37.6192 25.6386 38.612 25.2104 39.7022 25.2104H43.7514C44.8415 25.2493 45.6981 26.1253 45.6981 27.196Z" fill="#388E3C"/>
<g id="Group">
<path id="Vector_4" d="M29.0329 24.8207H15.4058C14.6077 24.8207 13.9458 24.1588 13.9458 23.3606C13.9458 22.5625 14.6077 21.9006 15.4058 21.9006H29.0329C29.831 21.9006 30.4929 22.5625 30.4929 23.3606C30.4929 24.1588 29.831 24.8207 29.0329 24.8207Z" fill="#388E3C"/>
</g>
<path id="Vector_5" d="M17.0184 31.4818C15.7244 30.1878 14.0726 29.4445 12.3657 29.2518C10.0944 28.9902 7.74049 29.7473 6.00605 31.4818C4.97365 32.5142 4.28538 33.7806 3.96878 35.1158C3.32181 37.6624 3.9963 40.4843 6.00605 42.4941C7.39636 43.8844 9.17209 44.6415 11.0029 44.7378C11.7875 44.8067 12.5997 44.7378 13.3843 44.5313C14.7195 44.2147 15.986 43.5265 17.0184 42.4941C20.0605 39.4519 20.0605 34.5239 17.0184 31.4818ZM10.0806 34.0697C10.0806 33.2713 10.7413 32.6106 11.5397 32.6106C12.3519 32.6243 12.9988 33.2713 13.0126 34.0834L12.9989 35.5288L14.3892 35.515C15.2014 35.5288 15.8483 36.1757 15.8621 36.9879C15.8483 37.8001 15.2013 38.447 14.3892 38.4608L12.9989 38.447L13.0126 39.8924C12.9989 40.7046 12.3519 41.3516 11.5397 41.3653C11.1405 41.3516 10.7827 41.1863 10.5211 40.9248C10.2596 40.6632 10.0943 40.3054 10.0806 39.9062L10.0806 38.447L8.56645 38.447C8.15348 38.447 7.79554 38.2819 7.534 38.0203C7.27246 37.7588 7.10732 37.4008 7.10732 36.9879C7.10732 36.1895 7.76805 35.5288 8.56645 35.5288L10.0806 35.5288L10.0806 34.0697Z" fill="#388E3C"/>
</g>
</g>
</svg>
